<svg preserveAspectRatio="none" overflow="visible" style="display: block;" width="199.562" height="199.562" viewBox="0 0 199.562 199.562" fill="none" xmlns="http://www.w3.org/2000/svg">
<path id="Mask" fill-rule="evenodd" clip-rule="evenodd" d="M199.562 126.87C199.562 129.646 199.563 132.421 199.546 135.197C199.533 137.535 199.506 139.872 199.442 142.21C199.304 147.302 199.005 152.44 198.099 157.476C197.181 162.586 195.682 167.341 193.319 171.983C190.996 176.546 187.962 180.721 184.342 184.341C180.721 187.962 176.546 190.996 171.983 193.319C167.341 195.682 162.586 197.181 157.476 198.099C152.44 199.005 147.303 199.304 142.21 199.442C139.872 199.506 137.535 199.533 135.197 199.546C132.421 199.563 129.646 199.562 126.87 199.562H72.6922C69.9164 199.562 67.1413 199.563 64.3655 199.546C62.0277 199.533 59.6902 199.506 57.353 199.442C52.26 199.304 47.1227 199.005 42.0863 198.099C36.9768 197.181 32.2216 195.682 27.5794 193.319C23.0167 190.996 18.8413 187.962 15.2211 184.341C11.6008 180.721 8.5662 176.546 6.24355 171.983C3.88077 167.341 2.38171 162.586 1.46341 157.476C0.557973 152.44 0.258239 147.302 0.12026 142.21C0.0567278 139.872 0.0298329 137.535 0.0163858 135.197C-7.34406e-07 132.421 0 129.646 0 126.87V72.6922C0 69.9165 -7.34406e-07 67.1413 0.0163858 64.3655C0.0298329 62.0277 0.0567278 59.6902 0.12026 57.353C0.258239 52.26 0.557973 47.1227 1.46341 42.0863C2.38171 36.9768 3.88077 32.2216 6.24355 27.5794C8.5662 23.0167 11.6008 18.8413 15.2211 15.2211C18.8413 11.6008 23.0167 8.566 27.5794 6.24355C32.2216 3.88077 36.9768 2.38171 42.0863 1.46341C47.1227 0.557973 52.26 0.25824 57.353 0.120066C59.6902 0.0567287 62.0277 0.0298329 64.3655 0.0163858C67.1413 -7.48842e-07 69.9164 0 72.6922 0H126.87C129.646 0 132.421 -7.48842e-07 135.197 0.0163858C137.535 0.0298329 139.872 0.0567287 142.21 0.120066C147.303 0.25824 152.44 0.557973 157.476 1.46341C162.586 2.38171 167.341 3.88077 171.983 6.24355C176.546 8.566 180.721 11.6008 184.342 15.2211C187.962 18.8413 190.996 23.0167 193.319 27.5794C195.682 32.2216 197.181 36.9768 198.099 42.0863C199.005 47.1227 199.304 52.26 199.442 57.353C199.506 59.6902 199.533 62.0277 199.546 64.3655C199.563 67.1413 199.562 69.9165 199.562 72.6922V126.87Z" fill="black"/>
</svg>
